<svg width="1200" height="630" xmlns="http://www.w3.org/2000/svg">
  <defs>
    <linearGradient id="bg" x1="0%" y1="0%" x2="100%" y2="100%">
      <stop offset="0%" style="stop-color:#fce7f3"/>
      <stop offset="50%" style="stop-color:#ffe4e6"/>
      <stop offset="100%" style="stop-color:#fff1f2"/>
    </linearGradient>
    <linearGradient id="heart" x1="0%" y1="0%" x2="0%" y2="100%">
      <stop offset="0%" style="stop-color:#f9a8d4"/>
      <stop offset="100%" style="stop-color:#f43f5e"/>
    </linearGradient>
  </defs>
  
  <!-- Background -->
  <rect width="1200" height="630" fill="url(#bg)"/>
  
  <!-- Decorative small hearts using path -->
  <g opacity="0.3" transform="translate(100, 100) scale(0.8)">
    <path d="M12 21.35l-1.45-1.32C5.4 15.36 2 12.28 2 8.5 2 5.42 4.42 3 7.5 3c1.74 0 3.41.81 4.5 2.09C13.09 3.81 14.76 3 16.5 3 19.58 3 22 5.42 22 8.5c0 3.78-3.4 6.86-8.55 11.54L12 21.35z" fill="#f43f5e"/>
  </g>
  <g opacity="0.25" transform="translate(200, 480) scale(0.7)">
    <path d="M12 21.35l-1.45-1.32C5.4 15.36 2 12.28 2 8.5 2 5.42 4.42 3 7.5 3c1.74 0 3.41.81 4.5 2.09C13.09 3.81 14.76 3 16.5 3 19.58 3 22 5.42 22 8.5c0 3.78-3.4 6.86-8.55 11.54L12 21.35z" fill="#ec4899"/>
  </g>
  <g opacity="0.3" transform="translate(1050, 120) scale(0.75)">
    <path d="M12 21.35l-1.45-1.32C5.4 15.36 2 12.28 2 8.5 2 5.42 4.42 3 7.5 3c1.74 0 3.41.81 4.5 2.09C13.09 3.81 14.76 3 16.5 3 19.58 3 22 5.42 22 8.5c0 3.78-3.4 6.86-8.55 11.54L12 21.35z" fill="#f43f5e"/>
  </g>
  <g opacity="0.25" transform="translate(1000, 450) scale(0.65)">
    <path d="M12 21.35l-1.45-1.32C5.4 15.36 2 12.28 2 8.5 2 5.42 4.42 3 7.5 3c1.74 0 3.41.81 4.5 2.09C13.09 3.81 14.76 3 16.5 3 19.58 3 22 5.42 22 8.5c0 3.78-3.4 6.86-8.55 11.54L12 21.35z" fill="#f9a8d4"/>
  </g>
  <g opacity="0.2" transform="translate(550, 80) scale(0.6)">
    <path d="M12 21.35l-1.45-1.32C5.4 15.36 2 12.28 2 8.5 2 5.42 4.42 3 7.5 3c1.74 0 3.41.81 4.5 2.09C13.09 3.81 14.76 3 16.5 3 19.58 3 22 5.42 22 8.5c0 3.78-3.4 6.86-8.55 11.54L12 21.35z" fill="#be123c"/>
  </g>
  <g opacity="0.2" transform="translate(800, 530) scale(0.55)">
    <path d="M12 21.35l-1.45-1.32C5.4 15.36 2 12.28 2 8.5 2 5.42 4.42 3 7.5 3c1.74 0 3.41.81 4.5 2.09C13.09 3.81 14.76 3 16.5 3 19.58 3 22 5.42 22 8.5c0 3.78-3.4 6.86-8.55 11.54L12 21.35z" fill="#ec4899"/>
  </g>
  
  <!-- Main Heart Icon -->
  <g transform="translate(600, 200)">
    <path d="M0 -40 C-40 -80 -100 -60 -100 -10 C-100 40 0 80 0 80 C0 80 100 40 100 -10 C100 -60 40 -80 0 -40" 
          fill="url(#heart)" 
          transform="translate(0, -20) scale(1.2)"/>
  </g>
  
  <!-- Title -->
  <text x="600" y="380" 
        font-family="Georgia, serif" 
        font-size="56" 
        font-weight="bold" 
        fill="#be123c" 
        text-anchor="middle">
    Valentine's Resume
  </text>
  
  <!-- Subtitle -->
  <text x="600" y="440" 
        font-family="system-ui, sans-serif" 
        font-size="28" 
        fill="#6b7280" 
        text-anchor="middle">
    Create &amp; Share Your Love Profile
  </text>
  
  <!-- Bottom tagline -->
  <text x="600" y="560" 
        font-family="system-ui, sans-serif" 
        font-size="22" 
        fill="#9ca3af" 
        text-anchor="middle">
    Made with love by CodeRabbit
  </text>
</svg>
