<svg xmlns="http://www.w3.org/2000/svg" viewBox="0 0 120 120" fill="none">
  <defs>
    <linearGradient id="arrowGrad" x1="0%" y1="0%" x2="100%" y2="100%">
      <stop offset="0%" style="stop-color:#d97706"/>
      <stop offset="100%" style="stop-color:#b45309"/>
    </linearGradient>
    <linearGradient id="arrowHeartGrad" x1="0%" y1="0%" x2="100%" y2="100%">
      <stop offset="0%" style="stop-color:#f43f5e"/>
      <stop offset="100%" style="stop-color:#ec4899"/>
    </linearGradient>
  </defs>
  <!-- Arrow shaft -->
  <line x1="15" y1="105" x2="105" y2="15" stroke="url(#arrowGrad)" stroke-width="3" stroke-linecap="round"/>
  <!-- Arrow head -->
  <polygon points="105,15 95,10 100,25" fill="url(#arrowGrad)"/>
  <!-- Arrow fletching -->
  <polygon points="15,105 25,100 20,110" fill="url(#arrowGrad)"/>
  <!-- Heart on arrow -->
  <path transform="translate(45, 45)" d="M15 26l-1.08-0.98C7.2 19.14 3 15.67 3 11.31c0-2.97 2.28-5.25 5.25-5.25 1.68 0 3.29 0.78 4.32 2.01L15 10.5l2.43-2.43c1.03-1.23 2.64-2.01 4.32-2.01 2.97 0 5.25 2.28 5.25 5.25 0 4.36-4.2 7.83-10.92 14.71L15 26z" fill="url(#arrowHeartGrad)"/>
</svg>
